<svg width="75" height="36" viewBox="0 0 75 36" fill="none" xmlns="http://www.w3.org/2000/svg">
<g id="logo">
<g id="Group 1171276350">
<g id="onabotulinumtoxinA injection">
<path id="Vector" d="M68.5472 34.1212V34.1036C68.6617 33.7601 68.6881 33.4607 68.6881 32.9146V30.9859C68.6881 30.5632 68.556 30.3342 68.4062 30.1581V30.1405L69.1901 29.7441V30.4663L69.2165 30.4751C69.4895 30.07 69.833 29.7794 70.2822 29.7794C70.8282 29.7794 71.1365 30.1757 71.1365 30.8538V32.9058C71.1365 33.4607 71.1453 33.7601 71.2774 34.1036V34.1212H70.4671V34.1036C70.5728 33.7601 70.5992 33.4342 70.5992 32.9146V30.9859C70.5992 30.528 70.4495 30.2285 70.0092 30.2285C69.7097 30.2285 69.4103 30.3518 69.2165 30.6336V32.9058C69.2165 33.4519 69.2341 33.7601 69.3574 34.1036V34.1212H68.5472Z" fill="black"/>
<path id="Vector_2" d="M66.709 34.2512C65.8987 34.2512 65.2734 33.2384 65.2734 32.0231C65.2734 30.8077 65.8987 29.7861 66.709 29.7861C67.5281 29.7861 68.1534 30.8077 68.1534 32.0231C68.1534 33.2384 67.5281 34.2512 66.709 34.2512ZM66.709 34.0927C67.3255 34.0927 67.5633 33.1416 67.5633 32.0231C67.5633 30.8958 67.3167 29.9447 66.709 29.9447C66.1013 29.9447 65.8635 30.9046 65.8635 32.0231C65.8635 33.1504 66.1013 34.0927 66.709 34.0927Z" fill="black"/>
<path id="Vector_3" d="M64.4639 28.9189C64.2702 28.9189 64.1116 28.7604 64.1116 28.5578C64.1116 28.3729 64.2702 28.2056 64.4639 28.2056C64.6665 28.2056 64.825 28.3729 64.825 28.5578C64.825 28.7604 64.6665 28.9189 64.4639 28.9189ZM64.094 34.1062V34.0886C64.1909 33.7451 64.235 33.4369 64.235 32.8997V30.9797C64.235 30.5746 64.1117 30.328 63.9531 30.1519V30.1255L64.7634 29.7292V32.8908C64.7634 33.4369 64.781 33.7451 64.9043 34.0886V34.1062H64.094Z" fill="black"/>
<path id="Vector_4" d="M63.7926 33.6905C63.6693 33.9548 63.4139 34.2278 63.0616 34.2278C62.7269 34.2278 62.4011 34.0252 62.4011 33.2854V30.0621H62.0664V30.0181L62.8855 29.0581H62.9295V29.9124H63.7222V30.0621H62.9295V33.2678C62.9295 33.6641 63.0528 33.8403 63.3434 33.8403C63.5548 33.8403 63.7045 33.7434 63.775 33.6729L63.7926 33.6905Z" fill="black"/>
<path id="Vector_5" d="M61.8457 33.168L61.8809 33.1768C61.7224 33.7845 61.3701 34.2512 60.8153 34.2512C60.0138 34.2512 59.4766 33.3882 59.4766 32.1376C59.4766 30.6932 60.1988 29.7861 61.0707 29.7861C61.3613 29.7861 61.6079 29.8742 61.7312 29.9359L61.7928 30.7549L61.74 30.7637C61.4846 30.3234 61.194 29.9447 60.8505 29.9447C60.4101 29.9447 60.0226 30.5788 60.0226 31.7853C60.0226 32.9302 60.3573 33.7404 61.0354 33.7404C61.3789 33.7404 61.6695 33.5379 61.8457 33.168Z" fill="black"/>
<path id="Vector_6" d="M58.2502 33.7581C58.6641 33.7581 58.9724 33.4586 59.1661 33.0711L59.2014 33.0887C59.0428 33.7228 58.6553 34.2512 58.0388 34.2512C57.2462 34.2512 56.7266 33.3353 56.7266 32.0935C56.7266 30.6844 57.3871 29.7861 58.0653 29.7861C58.7434 29.7861 59.219 30.6756 59.1838 31.5035H57.255C57.2462 31.5915 57.2462 31.6796 57.2462 31.7677C57.2462 33.0095 57.5985 33.7581 58.2502 33.7581ZM58.0388 29.9447C57.6249 29.9447 57.3254 30.4907 57.2638 31.3626L58.6377 31.3185V31.2217C58.6377 30.341 58.3911 29.9447 58.0388 29.9447Z" fill="black"/>
<path id="Vector_7" d="M55.9632 28.9189C55.7695 28.9189 55.6109 28.7604 55.6109 28.5578C55.6109 28.3729 55.7695 28.2056 55.9632 28.2056C56.1658 28.2056 56.3243 28.3729 56.3243 28.5578C56.3243 28.7604 56.1658 28.9189 55.9632 28.9189ZM55.3291 35.9997L55.3203 35.9645C55.5933 35.7531 55.7342 35.4272 55.7342 34.7843V30.9709C55.7342 30.5746 55.6021 30.328 55.4524 30.1607V30.1255L56.2627 29.7292L56.2539 34.3792C56.2539 35.4184 55.8576 35.9028 55.3291 35.9997Z" fill="black"/>
<path id="Vector_8" d="M52.3753 34.1207V34.1031C52.4898 33.7596 52.5162 33.4602 52.5162 32.9141V30.9854C52.5162 30.5627 52.3841 30.3337 52.2344 30.1576V30.14L53.0182 29.7437V30.4658L53.0446 30.4746C53.3177 30.0695 53.6611 29.7789 54.1103 29.7789C54.6564 29.7789 54.9646 30.1752 54.9646 30.8533V32.9053C54.9646 33.4602 54.9734 33.7596 55.1055 34.1031V34.1207H54.2953V34.1031C54.4009 33.7596 54.4274 33.4337 54.4274 32.9141V30.9854C54.4274 30.5275 54.2776 30.228 53.8373 30.228C53.5378 30.228 53.2384 30.3513 53.0446 30.6332V32.9053C53.0446 33.4514 53.0623 33.7596 53.1856 34.1031V34.1207H52.3753Z" fill="black"/>
<path id="Vector_9" d="M51.4366 28.9189C51.2428 28.9189 51.0843 28.7604 51.0843 28.5578C51.0843 28.3729 51.2428 28.2056 51.4366 28.2056C51.6392 28.2056 51.7977 28.3729 51.7977 28.5578C51.7977 28.7604 51.6392 28.9189 51.4366 28.9189ZM51.0667 34.1062V34.0886C51.1636 33.7451 51.2076 33.4369 51.2076 32.8997V30.9797C51.2076 30.5746 51.0843 30.328 50.9258 30.1519V30.1255L51.736 29.7292V32.8908C51.736 33.4369 51.7537 33.7451 51.877 34.0886V34.1062H51.0667Z" fill="black"/>
<path id="Vector_10" d="M47.113 34.104H46.3203V34.0864C46.5405 33.7341 46.6462 33.4171 46.7871 32.8094L48.0201 27.5869H48.1874L49.4292 32.8711C49.5878 33.5316 49.7023 33.8134 49.8784 34.0864V34.104H48.7951V34.0864C48.9272 33.8574 48.9625 33.4083 48.8216 32.8182L48.5661 31.7086H47.2186L47.0161 32.5716C46.8311 33.3731 46.9632 33.8398 47.113 34.0864V34.104ZM47.2539 31.55H48.5221L47.8968 28.8375L47.2539 31.55Z" fill="black"/>
<path id="Vector_11" d="M43.3206 34.1207V34.1031C43.4351 33.7596 43.4615 33.4602 43.4615 32.9141V30.9854C43.4615 30.5627 43.3294 30.3337 43.1797 30.1576V30.14L43.9635 29.7437V30.4658L43.9899 30.4746C44.263 30.0695 44.6065 29.7789 45.0556 29.7789C45.6017 29.7789 45.9099 30.1752 45.9099 30.8533V32.9053C45.9099 33.4602 45.9187 33.7596 46.0508 34.1031V34.1207H45.2406V34.1031C45.3463 33.7596 45.3727 33.4337 45.3727 32.9141V30.9854C45.3727 30.5275 45.223 30.228 44.7826 30.228C44.4831 30.228 44.1837 30.3513 43.9899 30.6332V32.9053C43.9899 33.4514 44.0076 33.7596 44.1309 34.1031V34.1207H43.3206Z" fill="black"/>
<path id="Vector_12" d="M42.3897 28.9136C42.196 28.9136 42.0374 28.755 42.0374 28.5525C42.0374 28.3675 42.196 28.2002 42.3897 28.2002C42.5923 28.2002 42.7508 28.3675 42.7508 28.5525C42.7508 28.755 42.5923 28.9136 42.3897 28.9136ZM42.0198 34.1008V34.0832C42.1167 33.7397 42.1607 33.4315 42.1607 32.8943V30.9744C42.1607 30.5693 42.0374 30.3227 41.8789 30.1465V30.1201L42.6892 29.7238V32.8855C42.6892 33.4315 42.7068 33.7397 42.8301 34.0832V34.1008H42.0198Z" fill="black"/>
<path id="Vector_13" d="M39.7092 33.2064L40.2024 32.0527L39.6828 30.8461C39.489 30.3706 39.3569 30.1152 39.1896 29.9302V29.9126H40.1407V29.9302C40.0086 30.1328 40.0615 30.3618 40.22 30.7228L40.6075 31.6388L40.9334 30.899C41.1536 30.4058 41.1007 30.0887 41.0038 29.9302V29.9126H41.6996V29.9302C41.453 30.1768 41.3385 30.3441 41.1271 30.8197L40.6868 31.8149L41.2592 33.18C41.4618 33.6643 41.6027 33.9109 41.7613 34.0959V34.1135H40.8101V34.0959C40.9422 33.8933 40.8805 33.6643 40.7308 33.3033L40.2728 32.2376L39.9029 33.1271C39.7004 33.6115 39.7356 33.9374 39.8325 34.0959V34.1135H39.1367V34.0959C39.3833 33.8493 39.5066 33.6908 39.7092 33.2064Z" fill="black"/>
<path id="Vector_14" d="M37.666 34.2512C36.8558 34.2512 36.2305 33.2384 36.2305 32.0231C36.2305 30.8077 36.8558 29.7861 37.666 29.7861C38.4851 29.7861 39.1104 30.8077 39.1104 32.0231C39.1104 33.2384 38.4851 34.2512 37.666 34.2512ZM37.666 34.0927C38.2825 34.0927 38.5203 33.1416 38.5203 32.0231C38.5203 30.8958 38.2737 29.9447 37.666 29.9447C37.0583 29.9447 36.8206 30.9046 36.8206 32.0231C36.8206 33.1504 37.0583 34.0927 37.666 34.0927Z" fill="black"/>
<path id="Vector_15" d="M36.1325 33.6905C36.0092 33.9548 35.7537 34.2278 35.4015 34.2278C35.0668 34.2278 34.7409 34.0252 34.7409 33.2854V30.0621H34.4062V30.0181L35.2253 29.0581H35.2694V29.9124H36.062V30.0621H35.2694V33.2678C35.2694 33.6641 35.3927 33.8403 35.6833 33.8403C35.8947 33.8403 36.0444 33.7434 36.1148 33.6729L36.1325 33.6905Z" fill="black"/>
<path id="Vector_16" d="M29.8909 34.1192V34.1016C30.0054 33.767 30.0318 33.4675 30.0318 32.9127V30.984C30.0318 30.5612 29.9085 30.3323 29.75 30.1473V30.1385L30.5338 29.7334V30.4732L30.5603 30.482C30.7892 30.0593 31.1063 29.7774 31.5467 29.7774C31.9694 29.7774 32.2072 30.0416 32.26 30.4908H32.2689C32.4978 30.0681 32.8149 29.7774 33.2553 29.7774C33.7573 29.7774 33.9863 30.1473 33.9863 30.7902V32.9127C33.9863 33.4675 34.0039 33.767 34.1272 34.1016V34.1192H33.3169V34.1016C33.4226 33.767 33.4578 33.4411 33.4578 32.9215V30.9047C33.4578 30.5084 33.3521 30.2178 32.9734 30.2178C32.6828 30.2178 32.4362 30.4027 32.2689 30.6757V32.9127C32.2689 33.4675 32.2865 33.767 32.4186 34.1016V34.1192H31.5995V34.1016C31.7228 33.767 31.7404 33.4411 31.7404 32.9215V30.9047C31.7404 30.5084 31.6435 30.2178 31.256 30.2178C30.9654 30.2178 30.71 30.3939 30.5603 30.6493V32.9127C30.5603 33.4499 30.5779 33.767 30.6924 34.1016V34.1192H29.8909Z" fill="black"/>
<path id="Vector_17" d="M26.9117 33.1447V30.67C26.9117 30.3089 26.806 30.0799 26.6562 29.9302V29.9126H27.4489V33.0214C27.4489 33.5322 27.625 33.7876 28.0037 33.7876C28.3472 33.7876 28.5674 33.5763 28.6995 33.3121V30.67C28.6995 30.3177 28.6114 30.0799 28.4353 29.9302V29.9126H29.2368V33.0126C29.2368 33.682 29.316 33.7964 29.5098 33.9638V33.9726L28.7347 34.2192V33.453C28.5234 33.8405 28.2239 34.2456 27.7131 34.2456C27.2199 34.2456 26.9117 33.8493 26.9117 33.1447Z" fill="black"/>
<path id="Vector_18" d="M23.6058 34.1207V34.1031C23.7203 33.7596 23.7467 33.4602 23.7467 32.9141V30.9854C23.7467 30.5627 23.6146 30.3337 23.4648 30.1576V30.14L24.2487 29.7437V30.4658L24.2751 30.4746C24.5481 30.0695 24.8916 29.7789 25.3408 29.7789C25.8868 29.7789 26.1951 30.1752 26.1951 30.8533V32.9053C26.1951 33.4602 26.2039 33.7596 26.336 34.1031V34.1207H25.5257V34.1031C25.6314 33.7596 25.6578 33.4337 25.6578 32.9141V30.9854C25.6578 30.5275 25.5081 30.228 25.0678 30.228C24.7683 30.228 24.4689 30.3513 24.2751 30.6332V32.9053C24.2751 33.4514 24.2927 33.7596 24.416 34.1031V34.1207H23.6058Z" fill="black"/>
<path id="Vector_19" d="M22.6749 28.9189C22.4811 28.9189 22.3226 28.7604 22.3226 28.5578C22.3226 28.3729 22.4811 28.2056 22.6749 28.2056C22.8774 28.2056 23.036 28.3729 23.036 28.5578C23.036 28.7604 22.8774 28.9189 22.6749 28.9189ZM22.305 34.1062V34.0886C22.4019 33.7451 22.4459 33.4369 22.4459 32.8997V30.9797C22.4459 30.5746 22.3226 30.328 22.1641 30.1519V30.1255L22.9743 29.7292V32.8908C22.9743 33.4369 22.9919 33.7451 23.1152 34.0886V34.1062H22.305Z" fill="black"/>
<path id="Vector_20" d="M21.0579 34.1135V34.0959C21.1548 33.8581 21.19 33.6203 21.19 33.1183V28.3274C21.19 27.9663 21.0755 27.7637 20.9258 27.6052V27.5876L21.7272 27.2529V33.1183C21.7272 33.6115 21.7713 33.8669 21.8681 34.0959V34.1135H21.0579Z" fill="black"/>
<path id="Vector_21" d="M18.1695 33.1447V30.67C18.1695 30.3089 18.0638 30.0799 17.9141 29.9302V29.9126H18.7067V33.0214C18.7067 33.5322 18.8829 33.7876 19.2616 33.7876C19.605 33.7876 19.8252 33.5763 19.9573 33.3121V30.67C19.9573 30.3177 19.8693 30.0799 19.6931 29.9302V29.9126H20.4946V33.0126C20.4946 33.682 20.5738 33.7964 20.7676 33.9638V33.9726L19.9926 34.2192V33.453C19.7812 33.8405 19.4817 34.2456 18.9709 34.2456C18.4777 34.2456 18.1695 33.8493 18.1695 33.1447Z" fill="black"/>
<path id="Vector_22" d="M17.7731 33.6905C17.6498 33.9548 17.3944 34.2278 17.0421 34.2278C16.7074 34.2278 16.3815 34.0252 16.3815 33.2854V30.0621H16.0469V30.0181L16.8659 29.0581H16.91V29.9124H17.7026V30.0621H16.91V33.2678C16.91 33.6641 17.0333 33.8403 17.3239 33.8403C17.5353 33.8403 17.685 33.7434 17.7555 33.6729L17.7731 33.6905Z" fill="black"/>
<path id="Vector_23" d="M14.4278 34.2512C13.6175 34.2512 12.9922 33.2384 12.9922 32.0231C12.9922 30.8077 13.6175 29.7861 14.4278 29.7861C15.2468 29.7861 15.8721 30.8077 15.8721 32.0231C15.8721 33.2384 15.2468 34.2512 14.4278 34.2512ZM14.4278 34.0927C15.0443 34.0927 15.2821 33.1416 15.2821 32.0231C15.2821 30.8958 15.0355 29.9447 14.4278 29.9447C13.8201 29.9447 13.5823 30.9046 13.5823 32.0231C13.5823 33.1504 13.8201 34.0927 14.4278 34.0927Z" fill="black"/>
<path id="Vector_24" d="M10.0269 34.1664V28.4154C10.0269 28.0279 9.89482 27.799 9.75391 27.6404V27.6228L10.5554 27.2529V30.4146H10.573C10.7755 30.0535 11.119 29.7805 11.533 29.7805C12.2816 29.7805 12.7131 30.6172 12.7131 31.8149C12.7131 33.1271 12.1847 34.2456 11.1983 34.2456C10.7932 34.2456 10.5025 34.0519 10.3176 33.8317L10.071 34.1664H10.0269ZM11.2775 34.0871C11.8412 34.0871 12.1495 33.3121 12.1495 32.0439C12.1495 30.8638 11.85 30.2209 11.2511 30.2209C10.9429 30.2209 10.6875 30.4058 10.5554 30.5908V32.7573C10.5554 33.7524 10.9165 34.0871 11.2775 34.0871Z" fill="black"/>
<path id="Vector_25" d="M7.76033 34.2512C7.34639 34.2512 7.01172 33.9782 7.01172 33.4498C7.01172 32.5691 7.96289 32.1288 8.67628 31.935V30.8782C8.67628 30.4731 8.52655 30.1913 8.03335 30.1913C7.7251 30.1913 7.40804 30.3145 7.16144 30.5435L7.12621 30.4995C7.38162 30.0768 7.79556 29.7861 8.32399 29.7861C9.01095 29.7861 9.21351 30.2353 9.21351 30.7637V33.5115C9.21351 33.6964 9.27516 33.8373 9.45131 33.8373C9.5658 33.8373 9.65387 33.7845 9.74194 33.6876L9.75956 33.714C9.6891 33.9166 9.52176 34.2248 9.16948 34.2248C8.85242 34.2248 8.69389 33.9782 8.68508 33.6876C8.49132 33.987 8.16546 34.2512 7.76033 34.2512ZM7.49611 33.2296C7.49611 33.5643 7.65464 33.8461 8.03335 33.8461C8.29757 33.8461 8.53536 33.7316 8.67628 33.5819V32.0759C8.08619 32.2785 7.49611 32.622 7.49611 33.2296Z" fill="black"/>
<path id="Vector_26" d="M3.91826 34.1207V34.1031C4.03275 33.7596 4.05917 33.4602 4.05917 32.9141V30.9854C4.05917 30.5627 3.92707 30.3337 3.77734 30.1576V30.14L4.56118 29.7437V30.4658L4.5876 30.4746C4.86063 30.0695 5.20411 29.7789 5.65327 29.7789C6.19932 29.7789 6.50757 30.1752 6.50757 30.8533V32.9053C6.50757 33.4602 6.51638 33.7596 6.64848 34.1031V34.1207H5.83822V34.1031C5.94391 33.7596 5.97033 33.4337 5.97033 32.9141V30.9854C5.97033 30.5275 5.82061 30.228 5.38025 30.228C5.08081 30.228 4.78136 30.3513 4.5876 30.6332V32.9053C4.5876 33.4514 4.60522 33.7596 4.72852 34.1031V34.1207H3.91826Z" fill="black"/>
<path id="Vector_27" d="M2.06838 34.2512C1.25812 34.2512 0.632812 33.2384 0.632812 32.0231C0.632812 30.8077 1.25812 29.7861 2.06838 29.7861C2.88745 29.7861 3.51276 30.8077 3.51276 32.0231C3.51276 33.2384 2.88745 34.2512 2.06838 34.2512ZM2.06838 34.0927C2.68489 34.0927 2.92268 33.1416 2.92268 32.0231C2.92268 30.8958 2.67608 29.9447 2.06838 29.9447C1.46069 29.9447 1.22289 30.9046 1.22289 32.0231C1.22289 33.1504 1.46069 34.0927 2.06838 34.0927Z" fill="black"/>
</g>
</g>
<g id="Group 1171276355">
<g id="Group 1171276265">
<g id="Group 1171276256">
<path id="Vector_28" d="M3.91051 25.5397C1.91791 25.5397 0.140625 23.9739 0.140625 21.3589C0.140625 18.6382 1.98447 17.0176 4.02796 17.0176C5.46466 17.0176 6.68606 17.8749 6.76827 19.1432L5.78176 19.2724C5.64474 18.1567 4.8892 17.5578 3.76567 17.5578C2.24675 17.5578 0.994037 18.9671 0.994037 21.0183C0.994037 23.0696 2.32505 24.7176 4.12582 24.7176C4.69663 24.7215 5.25763 24.5693 5.74819 24.2774C6.23875 23.9856 6.64022 23.5652 6.9092 23.0617C6.68998 24.7881 5.29633 25.5397 3.90268 25.5397" fill="black"/>
<g id="Group 1171275874">
<path id="Vector_29" d="M11.2158 21.1534C11.2158 23.5021 12.6799 25.0053 14.3475 25.0053C16.0152 25.0053 17.2601 23.6196 17.2601 21.4117C17.2601 19.0316 15.7999 17.5519 14.0813 17.5519C12.4332 17.5519 11.2158 18.9494 11.2158 21.1534ZM18.2231 21.3178C18.2435 21.8614 18.1549 22.4036 17.9625 22.9124C17.77 23.4212 17.4776 23.8863 17.1026 24.2803C16.7275 24.6744 16.2773 24.9893 15.7786 25.2066C15.2799 25.4239 14.7427 25.5392 14.1988 25.5456C12.0731 25.5456 10.2527 23.9132 10.2527 21.2395C10.2328 20.6966 10.3219 20.1552 10.5147 19.6473C10.7075 19.1394 11 18.6752 11.3752 18.2822C11.7503 17.8892 12.2003 17.5754 12.6987 17.3592C13.1971 17.143 13.7338 17.0288 14.2771 17.0234C16.4028 17.0234 18.2231 18.6441 18.2231 21.3295" fill="black"/>
<path id="Vector_30" d="M26.363 18.879L25.3999 18.9964C25.3999 18.2565 25.0085 17.5049 24.0415 17.5049C23.8644 17.4934 23.6869 17.5198 23.5209 17.5824C23.3548 17.6451 23.2041 17.7425 23.0788 17.8682C22.9535 17.9939 22.8565 18.1449 22.7943 18.3111C22.7322 18.4773 22.7063 18.6549 22.7184 18.832C22.7184 19.5366 23.149 20.0651 24.018 20.5897L24.8793 21.1299C25.8384 21.7288 26.5587 22.3043 26.5587 23.3612C26.5587 24.6295 25.3295 25.5338 23.9398 25.5338C22.3269 25.5338 21.4343 24.5356 21.4656 23.2555L22.4287 23.1381C22.4639 24.1833 22.8201 25.0523 24.112 25.0523C24.3125 25.064 24.5132 25.0348 24.702 24.9664C24.8908 24.898 25.0637 24.792 25.2102 24.6546C25.3567 24.5173 25.4737 24.3516 25.5541 24.1676C25.6345 23.9836 25.6766 23.7851 25.6779 23.5843C25.6779 22.8445 25.259 22.3747 24.2529 21.7523L23.2429 21.1181C22.4052 20.5701 21.8728 19.8655 21.8728 19.0199C21.8728 18.0217 22.7184 17.0234 24.1942 17.0234C25.5291 17.0234 26.363 17.8807 26.363 18.879Z" fill="black"/>
<path id="Vector_31" d="M38.0241 19.6381L34.6457 25.6235L31.142 19.6498V25.3887H30.5039V16.9409L34.7866 24.226L38.8697 16.9409V25.3887H38.0241V19.6381Z" fill="black"/>
<path id="Vector_32" d="M43.1797 17.187H47.3567V17.7859H44.0253V20.7767H46.7617V21.3404H44.0253V24.8009H47.4468V25.3999H43.1797V17.187Z" fill="black"/>
<path id="Vector_33" d="M50.6055 17.187H56.7555V17.7859H54.0974V25.3999H53.2636V17.7859H50.6055V17.187Z" fill="black"/>
<path id="Vector_34" d="M60.9393 17.187H60.0938V25.4038H60.9393V17.187Z" fill="black"/>
<path id="Vector_35" d="M68.3324 25.5456C66.3359 25.5456 64.5625 23.9797 64.5625 21.3647C64.5625 18.6441 66.4063 17.0234 68.4498 17.0234C69.8865 17.0234 71.104 17.8807 71.1901 19.1491L70.2036 19.2783C70.0666 18.1626 69.3111 17.5637 68.1836 17.5637C66.6647 17.5637 65.412 18.9729 65.412 21.0242C65.412 23.0754 66.7469 24.7235 68.5438 24.7235C69.1147 24.7255 69.6755 24.5725 70.1664 24.2809C70.6572 23.9893 71.0598 23.57 71.3311 23.0676C71.1079 24.794 69.7182 25.5456 68.3246 25.5456" fill="black"/>
</g>
</g>
</g>
<g id="Group 1171276266">
<g id="Group 1171276256_2">
<g id="Group 1171275874_2">
<g id="Group 1171276255">
<g id="BOTOX">
<path id="Vector_36" d="M62.0765 13.7304V13.7673H58.5547V13.7304C59.7532 12.9376 60.5092 12.071 61.4311 10.725L63.8097 7.2586L61.3758 3.07312C60.6014 1.70869 60.0114 0.878969 59.1079 0.307385V0.270508H64.1416V0.307385C63.736 0.786778 63.8097 1.87463 64.3998 2.90717L65.9302 5.50697L67.0918 3.71846C68.1613 2.09589 67.94 1.17398 67.4053 0.307385V0.270508H70.9271V0.307385C69.7101 1.08179 68.8251 1.98526 67.94 3.31282L66.1883 5.96792L69.1017 10.9462C69.8945 12.3475 70.4846 13.1588 71.3696 13.7304V13.7673H66.3359V13.7304C66.7599 13.251 66.6862 12.1816 66.0777 11.1306L64.0679 7.68268L62.2793 10.3009C61.1361 11.9788 61.6893 12.8638 62.0765 13.7304Z" fill="black"/>
<path id="Vector_37" d="M50.8405 14.0499C47.1159 14.0499 43.7969 10.9707 43.7969 7.0434C43.7969 3.11606 47.1159 0 50.8405 0C54.5651 0 57.9025 3.11606 57.9025 7.0434C57.9025 10.9707 54.5651 14.0499 50.8405 14.0499ZM50.8405 13.6627C53.7354 13.6627 54.9892 10.8601 54.9892 7.0434C54.9892 3.22669 53.7538 0.387203 50.8405 0.387203C47.9456 0.387203 46.7102 3.24513 46.7102 7.0434C46.7102 10.8417 47.9456 13.6627 50.8405 13.6627Z" fill="black"/>
<path id="Vector_38" d="M37.7436 13.7304V13.7673H33.5948V13.7304C34.1664 12.5135 34.3508 11.8128 34.3508 10.1718V0.602396L32.8388 0.676149C31.8985 0.749902 30.4049 3.12843 29.4277 4.52974L29.2617 4.47443L30.0177 0.270508H41.3391L42.0951 4.47443L41.9107 4.52974C40.9519 3.12843 39.4399 0.749902 38.4995 0.676149L37.006 0.602396V10.1718C37.006 11.8128 37.172 12.5135 37.7436 13.7304Z" fill="black"/>
<path id="Vector_39" d="M20.4577 14.0499C16.733 14.0499 13.4141 10.9707 13.4141 7.0434C13.4141 3.11606 16.733 0 20.4577 0C24.1823 0 27.5197 3.11606 27.5197 7.0434C27.5197 10.9707 24.1823 14.0499 20.4577 14.0499ZM20.4577 13.6627C23.3526 13.6627 24.6064 10.8601 24.6064 7.0434C24.6064 3.22669 23.371 0.387203 20.4577 0.387203C17.5628 0.387203 16.3274 3.24513 16.3274 7.0434C16.3274 10.8417 17.5628 13.6627 20.4577 13.6627Z" fill="black"/>
<path id="Vector_40" d="M5.43944 13.7808H0V13.7439C0.571602 12.527 0.737551 11.8263 0.737551 10.1853V3.87944C0.737551 2.22 0.571602 1.53779 0 0.320864V0.283987C1.88076 0.283987 4.29624 0.228673 5.34725 0.228673C9.14563 0.210234 10.0307 1.81436 10.0307 3.36317C10.0307 4.76448 9.33002 6.07359 7.37551 6.66361C9.79099 7.06925 10.6945 8.489 10.6945 10.0931C10.6945 12.2135 9.18251 13.7808 5.43944 13.7808ZM3.39274 6.55298H5.05223C6.8961 6.53455 7.50458 4.9673 7.50458 3.52911C7.50458 1.79592 6.63796 0.615875 4.75721 0.615875C4.1856 0.615875 3.76151 0.67119 3.39274 0.763381V6.55298ZM4.81252 13.412C6.93298 13.412 7.92867 12.0476 7.92867 10.1116C7.92867 8.30462 7.13581 6.95863 5.1813 6.95863H3.39274V13.2461C3.77995 13.3383 4.25936 13.412 4.81252 13.412Z" fill="black"/>
</g>
</g>
</g>
</g>
</g>
<path id="&#194;&#174;" d="M73.4607 0.0869141C74.2517 0.0869141 74.9214 0.642977 74.9214 1.54364C74.9214 2.44039 74.2517 3.00037 73.4607 3.00037C72.6696 3.00037 72 2.44039 72 1.54364C72 0.642977 72.6696 0.0869141 73.4607 0.0869141ZM73.4607 2.81632C74.1421 2.81632 74.7177 2.33074 74.7177 1.54364C74.7177 0.752623 74.1421 0.270963 73.4607 0.270963C72.7793 0.270963 72.2036 0.752623 72.2036 1.54364C72.2036 2.33074 72.7793 2.81632 73.4607 2.81632ZM74.052 1.19121C74.052 1.40267 73.9267 1.56322 73.7152 1.63371L74.1147 2.32291H73.817L73.4568 1.65329H73.2022V2.32291H72.9438V0.733043H73.4998C73.8562 0.733043 74.052 0.897512 74.052 1.19121ZM73.4998 0.952335H73.2022V1.43008H73.4998C73.6917 1.43008 73.7975 1.34393 73.7975 1.19121C73.7975 1.03065 73.6996 0.952335 73.4998 0.952335Z" fill="black"/>
</g>
</g>
</svg>
